# xmcd
#
# Track frame offsets:
#	150
#	9667
#	24492
#	34535
#	52220
#	65192
#	79435
#	91325
#	105817
#	118617
#	132087
#	143012
#	152000
#	162660
#	172285
#	186890
#	198257
#	204267
#	214802
#	224942
#
# Disc length: 3134
#
# Revision: 3
# Processed by: cddbd v1.5.1PL0 Copyright (c) Steve Scherf et al.
# Submitted via: DiscPlay 4.0.3
# Normalized: r1:TSWAP
#
DISCID=2a0c3c14
DTITLE=Div. Kunstnere - The Country box vol. 2 [CD1)
DYEAR=1900
DGENRE=
TTITLE0=Merle Travis - 16 Tons
TTITLE1=The Kingson Trio - Tom Dooley
TTITLE2=J. Cash - Rock Island Line
TTITLE3=Skeeter Davis - Always on my mind
TTITLE4=Jonny Tillotson - It keeps right on a-hurtin'
TTITLE5=BJ Thomas - I m so lonesome I could cry
TTITLE6=Dolly Parton - Letter to heaven
TTITLE7=George Jones - A good year for the roses
TTITLE8=Billy Jo Spears - 57 Chevrolet
TTITLE9=Jimmy Jean - Big bad John
TTITLE10=Sammi Smith - Help me make it through the night
TTITLE11=Buck Owens - After the dance
TTITLE12=Carl Belew - Am I that easy to forget
TTITLE13=Del Wood - Are you from dixie
TTITLE14=Glenn Barber - Another man's Woman
TTITLE15=Stoney Cooper and Wilma Lee - Big midnight special
TTITLE16=Buck Owens - Blue love
TTITLE17=Jimmy C. Newman - D.J. for a day
TTITLE18=Anne Murray - For baby
TTITLE19=Willie Nelson - Pride wins again
EXTD=
EXTT0=
EXTT1=
EXTT2=
EXTT3=
EXTT4=
EXTT5=
EXTT6=
EXTT7=
EXTT8=
EXTT9=
EXTT10=
EXTT11=
EXTT12=
EXTT13=
EXTT14=
EXTT15=
EXTT16=
EXTT17=
EXTT18=
EXTT19=
PLAYORDER=
